<svg width="52" height="43" viewBox="0 0 52 43" fill="none" xmlns="http://www.w3.org/2000/svg">
<path d="M16.6273 20.852L0.967266 14.588V12.212L16.6273 5.948V8.18L1.90327 13.976V12.824L16.6273 18.62V20.852ZM25.4183 26V1.88L26.5703 3.104H19.4783V0.799998H28.0103V26H25.4183ZM41.9901 26.216C40.1901 26.216 38.4741 25.928 36.8421 25.352C35.2101 24.752 33.9141 23.96 32.9541 22.976L34.2141 20.924C35.0061 21.764 36.0861 22.46 37.4541 23.012C38.8461 23.564 40.3461 23.84 41.9541 23.84C44.0901 23.84 45.7101 23.372 46.8141 22.436C47.9421 21.476 48.5061 20.228 48.5061 18.692C48.5061 17.612 48.2421 16.688 47.7141 15.92C47.2101 15.128 46.3461 14.516 45.1221 14.084C43.8981 13.652 42.2181 13.436 40.0821 13.436H34.7181L36.0141 0.799998H49.8021V3.104H37.0581L38.3901 1.844L37.2741 12.428L35.9421 11.132H40.6581C43.2021 11.132 45.2421 11.444 46.7781 12.068C48.3141 12.692 49.4181 13.568 50.0901 14.696C50.7861 15.8 51.1341 17.096 51.1341 18.584C51.1341 20 50.7981 21.296 50.1261 22.472C49.4541 23.624 48.4461 24.536 47.1021 25.208C45.7581 25.88 44.0541 26.216 41.9901 26.216ZM10.297 41.982L10.387 40.884C10.471 40.896 10.549 40.914 10.621 40.938C10.705 40.95 10.777 40.956 10.837 40.956C11.221 40.956 11.527 40.812 11.755 40.524C11.995 40.236 12.175 39.852 12.295 39.372C12.415 38.892 12.499 38.352 12.547 37.752C12.595 37.14 12.637 36.528 12.673 35.916L12.835 32.55H19.765V42H18.487V33.288L18.811 33.666H13.663L13.969 33.27L13.825 36.006C13.789 36.822 13.723 37.602 13.627 38.346C13.543 39.09 13.405 39.744 13.213 40.308C13.033 40.872 12.781 41.316 12.457 41.64C12.133 41.952 11.719 42.108 11.215 42.108C11.071 42.108 10.921 42.096 10.765 42.072C10.621 42.048 10.465 42.018 10.297 41.982ZM27.4481 42.09C26.4641 42.09 25.6001 41.886 24.8561 41.478C24.1121 41.058 23.5301 40.488 23.1101 39.768C22.6901 39.036 22.4801 38.202 22.4801 37.266C22.4801 36.33 22.6781 35.502 23.0741 34.782C23.4821 34.062 24.0341 33.498 24.7301 33.09C25.4381 32.67 26.2301 32.46 27.1061 32.46C27.9941 32.46 28.7801 32.664 29.4641 33.072C30.1601 33.468 30.7061 34.032 31.1021 34.764C31.4981 35.484 31.6961 36.318 31.6961 37.266C31.6961 37.326 31.6901 37.392 31.6781 37.464C31.6781 37.524 31.6781 37.59 31.6781 37.662H23.4521V36.708H30.9941L30.4901 37.086C30.4901 36.402 30.3401 35.796 30.0401 35.268C29.7521 34.728 29.3561 34.308 28.8521 34.008C28.3481 33.708 27.7661 33.558 27.1061 33.558C26.4581 33.558 25.8761 33.708 25.3601 34.008C24.8441 34.308 24.4421 34.728 24.1541 35.268C23.8661 35.808 23.7221 36.426 23.7221 37.122V37.32C23.7221 38.04 23.8781 38.676 24.1901 39.228C24.5141 39.768 24.9581 40.194 25.5221 40.506C26.0981 40.806 26.7521 40.956 27.4841 40.956C28.0601 40.956 28.5941 40.854 29.0861 40.65C29.5901 40.446 30.0221 40.134 30.3821 39.714L31.1021 40.542C30.6821 41.046 30.1541 41.43 29.5181 41.694C28.8941 41.958 28.2041 42.09 27.4481 42.09ZM35.9032 42V33.324L36.2272 33.666H32.3212V32.55H40.7632V33.666H36.8572L37.1812 33.324V42H35.9032Z" fill="#202020"/>
</svg>
