<svg width="62" height="47" viewBox="0 0 62 47" fill="none" xmlns="http://www.w3.org/2000/svg">
<path d="M9.62459 14.108C8.85659 14.108 8.17259 13.982 7.57259 13.73C6.98459 13.478 6.48059 13.094 6.06059 12.578C5.64059 12.062 5.32259 11.426 5.10659 10.67C4.89059 9.902 4.78259 9.014 4.78259 8.006C4.78259 7.106 4.86659 6.32 5.03459 5.648C5.20259 4.964 5.43659 4.376 5.73659 3.884C6.03659 3.392 6.38459 2.978 6.78059 2.642C7.18859 2.294 7.62659 2.018 8.09459 1.814C8.57459 1.598 9.06659 1.436 9.57059 1.328L13.8186 0.337999L14.0346 1.526L10.0386 2.426C9.78659 2.486 9.48059 2.57 9.12059 2.678C8.77259 2.786 8.41259 2.948 8.04059 3.164C7.68059 3.38 7.34459 3.68 7.03259 4.064C6.72059 4.448 6.46859 4.946 6.27659 5.558C6.09659 6.158 6.00659 6.908 6.00659 7.808C6.00659 8 6.01259 8.156 6.02459 8.276C6.03659 8.384 6.04859 8.504 6.06059 8.636C6.08459 8.756 6.10259 8.936 6.11459 9.176L5.55659 8.708C5.68859 7.976 5.95859 7.34 6.36659 6.8C6.77459 6.248 7.28459 5.822 7.89659 5.522C8.52059 5.21 9.21059 5.054 9.96659 5.054C10.8426 5.054 11.6226 5.246 12.3066 5.63C12.9906 6.002 13.5246 6.524 13.9086 7.196C14.3046 7.868 14.5026 8.648 14.5026 9.536C14.5026 10.412 14.2986 11.198 13.8906 11.894C13.4946 12.59 12.9306 13.136 12.1986 13.532C11.4666 13.916 10.6086 14.108 9.62459 14.108ZM9.76859 13.046C10.4406 13.046 11.0346 12.896 11.5506 12.596C12.0666 12.284 12.4686 11.864 12.7566 11.336C13.0566 10.808 13.2066 10.214 13.2066 9.554C13.2066 8.906 13.0566 8.33 12.7566 7.826C12.4686 7.322 12.0666 6.926 11.5506 6.638C11.0346 6.338 10.4346 6.188 9.75059 6.188C9.07859 6.188 8.48459 6.332 7.96859 6.62C7.45259 6.896 7.04459 7.286 6.74459 7.79C6.45659 8.294 6.31259 8.876 6.31259 9.536C6.31259 10.196 6.45659 10.79 6.74459 11.318C7.04459 11.846 7.45259 12.266 7.96859 12.578C8.49659 12.89 9.09659 13.046 9.76859 13.046ZM21.1298 14.09C20.2178 14.09 19.3958 13.886 18.6638 13.478C17.9438 13.058 17.3738 12.488 16.9538 11.768C16.5338 11.036 16.3238 10.202 16.3238 9.266C16.3238 8.318 16.5338 7.484 16.9538 6.764C17.3738 6.044 17.9438 5.48 18.6638 5.072C19.3838 4.664 20.2058 4.46 21.1298 4.46C22.0658 4.46 22.8938 4.664 23.6138 5.072C24.3458 5.48 24.9158 6.044 25.3238 6.764C25.7438 7.484 25.9538 8.318 25.9538 9.266C25.9538 10.202 25.7438 11.036 25.3238 11.768C24.9158 12.488 24.3458 13.058 23.6138 13.478C22.8818 13.886 22.0538 14.09 21.1298 14.09ZM21.1298 12.956C21.8138 12.956 22.4198 12.806 22.9478 12.506C23.4758 12.194 23.8898 11.762 24.1898 11.21C24.5018 10.646 24.6578 9.998 24.6578 9.266C24.6578 8.522 24.5018 7.874 24.1898 7.322C23.8898 6.77 23.4758 6.344 22.9478 6.044C22.4198 5.732 21.8198 5.576 21.1478 5.576C20.4758 5.576 19.8758 5.732 19.3478 6.044C18.8198 6.344 18.3998 6.77 18.0878 7.322C17.7758 7.874 17.6198 8.522 17.6198 9.266C17.6198 9.998 17.7758 10.646 18.0878 11.21C18.3998 11.762 18.8198 12.194 19.3478 12.506C19.8758 12.806 20.4698 12.956 21.1298 12.956ZM26.9045 13.982L26.9945 12.884C27.0785 12.896 27.1565 12.914 27.2285 12.938C27.3125 12.95 27.3845 12.956 27.4445 12.956C27.8285 12.956 28.1345 12.812 28.3625 12.524C28.6025 12.236 28.7825 11.852 28.9025 11.372C29.0225 10.892 29.1065 10.352 29.1545 9.752C29.2025 9.14 29.2445 8.528 29.2805 7.916L29.4425 4.55H36.3725V14H35.0945V5.288L35.4185 5.666H30.2705L30.5765 5.27L30.4325 8.006C30.3965 8.822 30.3305 9.602 30.2345 10.346C30.1505 11.09 30.0125 11.744 29.8205 12.308C29.6405 12.872 29.3885 13.316 29.0645 13.64C28.7405 13.952 28.3265 14.108 27.8225 14.108C27.6785 14.108 27.5285 14.096 27.3725 14.072C27.2285 14.048 27.0725 14.018 26.9045 13.982ZM44.0555 14.09C43.0715 14.09 42.2075 13.886 41.4635 13.478C40.7195 13.058 40.1375 12.488 39.7175 11.768C39.2975 11.036 39.0875 10.202 39.0875 9.266C39.0875 8.33 39.2855 7.502 39.6815 6.782C40.0895 6.062 40.6415 5.498 41.3375 5.09C42.0455 4.67 42.8375 4.46 43.7135 4.46C44.6015 4.46 45.3875 4.664 46.0715 5.072C46.7675 5.468 47.3135 6.032 47.7095 6.764C48.1055 7.484 48.3035 8.318 48.3035 9.266C48.3035 9.326 48.2975 9.392 48.2855 9.464C48.2855 9.524 48.2855 9.59 48.2855 9.662H40.0595V8.708H47.6015L47.0975 9.086C47.0975 8.402 46.9475 7.796 46.6475 7.268C46.3595 6.728 45.9635 6.308 45.4595 6.008C44.9555 5.708 44.3735 5.558 43.7135 5.558C43.0655 5.558 42.4835 5.708 41.9675 6.008C41.4515 6.308 41.0495 6.728 40.7615 7.268C40.4735 7.808 40.3295 8.426 40.3295 9.122V9.32C40.3295 10.04 40.4855 10.676 40.7975 11.228C41.1215 11.768 41.5655 12.194 42.1295 12.506C42.7055 12.806 43.3595 12.956 44.0915 12.956C44.6675 12.956 45.2015 12.854 45.6935 12.65C46.1975 12.446 46.6295 12.134 46.9895 11.714L47.7095 12.542C47.2895 13.046 46.7615 13.43 46.1255 13.694C45.5015 13.958 44.8115 14.09 44.0555 14.09ZM55.1825 14.09C54.1985 14.09 53.3345 13.886 52.5905 13.478C51.8465 13.058 51.2645 12.488 50.8445 11.768C50.4245 11.036 50.2145 10.202 50.2145 9.266C50.2145 8.33 50.4125 7.502 50.8085 6.782C51.2165 6.062 51.7685 5.498 52.4645 5.09C53.1725 4.67 53.9645 4.46 54.8405 4.46C55.7285 4.46 56.5145 4.664 57.1985 5.072C57.8945 5.468 58.4405 6.032 58.8365 6.764C59.2325 7.484 59.4305 8.318 59.4305 9.266C59.4305 9.326 59.4245 9.392 59.4125 9.464C59.4125 9.524 59.4125 9.59 59.4125 9.662H51.1865V8.708H58.7285L58.2245 9.086C58.2245 8.402 58.0745 7.796 57.7745 7.268C57.4865 6.728 57.0905 6.308 56.5865 6.008C56.0825 5.708 55.5005 5.558 54.8405 5.558C54.1925 5.558 53.6105 5.708 53.0945 6.008C52.5785 6.308 52.1765 6.728 51.8885 7.268C51.6005 7.808 51.4565 8.426 51.4565 9.122V9.32C51.4565 10.04 51.6125 10.676 51.9245 11.228C52.2485 11.768 52.6925 12.194 53.2565 12.506C53.8325 12.806 54.4865 12.956 55.2185 12.956C55.7945 12.956 56.3285 12.854 56.8205 12.65C57.3245 12.446 57.7565 12.134 58.1165 11.714L58.8365 12.542C58.4165 13.046 57.8885 13.43 57.2525 13.694C56.6285 13.958 55.9385 14.09 55.1825 14.09ZM9.7378 46.216C7.9138 46.216 6.1858 45.928 4.5538 45.352C2.9458 44.752 1.6498 43.96 0.665797 42.976L1.9258 40.924C2.7418 41.764 3.8338 42.46 5.2018 43.012C6.5938 43.564 8.1058 43.84 9.7378 43.84C11.8258 43.84 13.4218 43.384 14.5258 42.472C15.6538 41.56 16.2178 40.336 16.2178 38.8C16.2178 37.264 15.6658 36.04 14.5618 35.128C13.4818 34.216 11.7658 33.76 9.4138 33.76H7.6138V31.852L15.3898 22.096L15.7498 23.104H1.7098V20.8H17.9098V22.636L10.1338 32.392L8.8738 31.564H9.8458C12.8698 31.564 15.1258 32.236 16.6138 33.58C18.1258 34.924 18.8818 36.652 18.8818 38.764C18.8818 40.18 18.5458 41.452 17.8738 42.58C17.2018 43.708 16.1818 44.596 14.8138 45.244C13.4698 45.892 11.7778 46.216 9.7378 46.216ZM30.1385 46.216C28.3385 46.216 26.6225 45.928 24.9905 45.352C23.3585 44.752 22.0625 43.96 21.1025 42.976L22.3625 40.924C23.1545 41.764 24.2345 42.46 25.6025 43.012C26.9945 43.564 28.4945 43.84 30.1025 43.84C32.2385 43.84 33.8585 43.372 34.9625 42.436C36.0905 41.476 36.6545 40.228 36.6545 38.692C36.6545 37.612 36.3905 36.688 35.8625 35.92C35.3585 35.128 34.4945 34.516 33.2705 34.084C32.0465 33.652 30.3665 33.436 28.2305 33.436H22.8665L24.1625 20.8H37.9505V23.104H25.2065L26.5385 21.844L25.4225 32.428L24.0905 31.132H28.8065C31.3505 31.132 33.3905 31.444 34.9265 32.068C36.4625 32.692 37.5665 33.568 38.2385 34.696C38.9345 35.8 39.2825 37.096 39.2825 38.584C39.2825 40 38.9465 41.296 38.2745 42.472C37.6025 43.624 36.5945 44.536 35.2505 45.208C33.9065 45.88 32.2025 46.216 30.1385 46.216ZM52.1492 46.216C50.1332 46.216 48.3932 45.928 46.9292 45.352C45.4892 44.776 44.3732 43.948 43.5812 42.868C42.8132 41.764 42.4292 40.468 42.4292 38.98C42.4292 37.54 42.8012 36.316 43.5452 35.308C44.3132 34.276 45.4172 33.484 46.8572 32.932C48.3212 32.38 50.0852 32.104 52.1492 32.104C54.1892 32.104 55.9412 32.38 57.4052 32.932C58.8692 33.484 59.9852 34.276 60.7532 35.308C61.5452 36.316 61.9412 37.54 61.9412 38.98C61.9412 40.468 61.5452 41.764 60.7532 42.868C59.9612 43.948 58.8332 44.776 57.3692 45.352C55.9052 45.928 54.1652 46.216 52.1492 46.216ZM52.1492 44.02C54.3812 44.02 56.1212 43.564 57.3692 42.652C58.6412 41.74 59.2772 40.504 59.2772 38.944C59.2772 37.384 58.6412 36.16 57.3692 35.272C56.1212 34.36 54.3812 33.904 52.1492 33.904C49.9172 33.904 48.1772 34.36 46.9292 35.272C45.6812 36.16 45.0572 37.384 45.0572 38.944C45.0572 40.504 45.6812 41.74 46.9292 42.652C48.1772 43.564 49.9172 44.02 52.1492 44.02ZM52.1492 33.58C50.2772 33.58 48.6812 33.328 47.3612 32.824C46.0652 32.32 45.0692 31.6 44.3732 30.664C43.6772 29.704 43.3292 28.564 43.3292 27.244C43.3292 25.852 43.6892 24.664 44.4092 23.68C45.1532 22.672 46.1852 21.904 47.5052 21.376C48.8252 20.848 50.3732 20.584 52.1492 20.584C53.9252 20.584 55.4732 20.848 56.7932 21.376C58.1372 21.904 59.1812 22.672 59.9252 23.68C60.6692 24.664 61.0412 25.852 61.0412 27.244C61.0412 28.564 60.6932 29.704 59.9972 30.664C59.3012 31.6 58.2812 32.32 56.9372 32.824C55.6172 33.328 54.0212 33.58 52.1492 33.58ZM52.1492 31.852C54.1172 31.852 55.6532 31.444 56.7572 30.628C57.8612 29.812 58.4132 28.72 58.4132 27.352C58.4132 25.912 57.8372 24.796 56.6852 24.004C55.5572 23.188 54.0452 22.78 52.1492 22.78C50.2532 22.78 48.7412 23.188 47.6132 24.004C46.4852 24.796 45.9212 25.9 45.9212 27.316C45.9212 28.708 46.4612 29.812 47.5412 30.628C48.6452 31.444 50.1812 31.852 52.1492 31.852Z" fill="#202020"/>
</svg>
