<svg width="62" height="47" viewBox="0 0 62 47" fill="none" xmlns="http://www.w3.org/2000/svg">
<path d="M9.12459 14.108C8.35659 14.108 7.67259 13.982 7.07259 13.73C6.48459 13.478 5.98059 13.094 5.56059 12.578C5.14059 12.062 4.82259 11.426 4.60659 10.67C4.39059 9.902 4.28259 9.014 4.28259 8.006C4.28259 7.106 4.36659 6.32 4.53459 5.648C4.70259 4.964 4.93659 4.376 5.23659 3.884C5.53659 3.392 5.88459 2.978 6.28059 2.642C6.68859 2.294 7.12659 2.018 7.59459 1.814C8.07459 1.598 8.56659 1.436 9.07059 1.328L13.3186 0.337999L13.5346 1.526L9.53859 2.426C9.28659 2.486 8.98059 2.57 8.62059 2.678C8.27259 2.786 7.91259 2.948 7.54059 3.164C7.18059 3.38 6.84459 3.68 6.53259 4.064C6.22059 4.448 5.96859 4.946 5.77659 5.558C5.59659 6.158 5.50659 6.908 5.50659 7.808C5.50659 8 5.51259 8.156 5.52459 8.276C5.53659 8.384 5.54859 8.504 5.56059 8.636C5.58459 8.756 5.60259 8.936 5.61459 9.176L5.05659 8.708C5.18859 7.976 5.45859 7.34 5.86659 6.8C6.27459 6.248 6.78459 5.822 7.39659 5.522C8.02059 5.21 8.71059 5.054 9.46659 5.054C10.3426 5.054 11.1226 5.246 11.8066 5.63C12.4906 6.002 13.0246 6.524 13.4086 7.196C13.8046 7.868 14.0026 8.648 14.0026 9.536C14.0026 10.412 13.7986 11.198 13.3906 11.894C12.9946 12.59 12.4306 13.136 11.6986 13.532C10.9666 13.916 10.1086 14.108 9.12459 14.108ZM9.26859 13.046C9.94059 13.046 10.5346 12.896 11.0506 12.596C11.5666 12.284 11.9686 11.864 12.2566 11.336C12.5566 10.808 12.7066 10.214 12.7066 9.554C12.7066 8.906 12.5566 8.33 12.2566 7.826C11.9686 7.322 11.5666 6.926 11.0506 6.638C10.5346 6.338 9.93459 6.188 9.25059 6.188C8.57859 6.188 7.98459 6.332 7.46859 6.62C6.95259 6.896 6.54459 7.286 6.24459 7.79C5.95659 8.294 5.81259 8.876 5.81259 9.536C5.81259 10.196 5.95659 10.79 6.24459 11.318C6.54459 11.846 6.95259 12.266 7.46859 12.578C7.99659 12.89 8.59659 13.046 9.26859 13.046ZM20.6298 14.09C19.7178 14.09 18.8958 13.886 18.1638 13.478C17.4438 13.058 16.8738 12.488 16.4538 11.768C16.0338 11.036 15.8238 10.202 15.8238 9.266C15.8238 8.318 16.0338 7.484 16.4538 6.764C16.8738 6.044 17.4438 5.48 18.1638 5.072C18.8838 4.664 19.7058 4.46 20.6298 4.46C21.5658 4.46 22.3938 4.664 23.1138 5.072C23.8458 5.48 24.4158 6.044 24.8238 6.764C25.2438 7.484 25.4538 8.318 25.4538 9.266C25.4538 10.202 25.2438 11.036 24.8238 11.768C24.4158 12.488 23.8458 13.058 23.1138 13.478C22.3818 13.886 21.5538 14.09 20.6298 14.09ZM20.6298 12.956C21.3138 12.956 21.9198 12.806 22.4478 12.506C22.9758 12.194 23.3898 11.762 23.6898 11.21C24.0018 10.646 24.1578 9.998 24.1578 9.266C24.1578 8.522 24.0018 7.874 23.6898 7.322C23.3898 6.77 22.9758 6.344 22.4478 6.044C21.9198 5.732 21.3198 5.576 20.6478 5.576C19.9758 5.576 19.3758 5.732 18.8478 6.044C18.3198 6.344 17.8998 6.77 17.5878 7.322C17.2758 7.874 17.1198 8.522 17.1198 9.266C17.1198 9.998 17.2758 10.646 17.5878 11.21C17.8998 11.762 18.3198 12.194 18.8478 12.506C19.3758 12.806 19.9698 12.956 20.6298 12.956ZM26.4045 13.982L26.4945 12.884C26.5785 12.896 26.6565 12.914 26.7285 12.938C26.8125 12.95 26.8845 12.956 26.9445 12.956C27.3285 12.956 27.6345 12.812 27.8625 12.524C28.1025 12.236 28.2825 11.852 28.4025 11.372C28.5225 10.892 28.6065 10.352 28.6545 9.752C28.7025 9.14 28.7445 8.528 28.7805 7.916L28.9425 4.55H35.8725V14H34.5945V5.288L34.9185 5.666H29.7705L30.0765 5.27L29.9325 8.006C29.8965 8.822 29.8305 9.602 29.7345 10.346C29.6505 11.09 29.5125 11.744 29.3205 12.308C29.1405 12.872 28.8885 13.316 28.5645 13.64C28.2405 13.952 27.8265 14.108 27.3225 14.108C27.1785 14.108 27.0285 14.096 26.8725 14.072C26.7285 14.048 26.5725 14.018 26.4045 13.982ZM43.5555 14.09C42.5715 14.09 41.7075 13.886 40.9635 13.478C40.2195 13.058 39.6375 12.488 39.2175 11.768C38.7975 11.036 38.5875 10.202 38.5875 9.266C38.5875 8.33 38.7855 7.502 39.1815 6.782C39.5895 6.062 40.1415 5.498 40.8375 5.09C41.5455 4.67 42.3375 4.46 43.2135 4.46C44.1015 4.46 44.8875 4.664 45.5715 5.072C46.2675 5.468 46.8135 6.032 47.2095 6.764C47.6055 7.484 47.8035 8.318 47.8035 9.266C47.8035 9.326 47.7975 9.392 47.7855 9.464C47.7855 9.524 47.7855 9.59 47.7855 9.662H39.5595V8.708H47.1015L46.5975 9.086C46.5975 8.402 46.4475 7.796 46.1475 7.268C45.8595 6.728 45.4635 6.308 44.9595 6.008C44.4555 5.708 43.8735 5.558 43.2135 5.558C42.5655 5.558 41.9835 5.708 41.4675 6.008C40.9515 6.308 40.5495 6.728 40.2615 7.268C39.9735 7.808 39.8295 8.426 39.8295 9.122V9.32C39.8295 10.04 39.9855 10.676 40.2975 11.228C40.6215 11.768 41.0655 12.194 41.6295 12.506C42.2055 12.806 42.8595 12.956 43.5915 12.956C44.1675 12.956 44.7015 12.854 45.1935 12.65C45.6975 12.446 46.1295 12.134 46.4895 11.714L47.2095 12.542C46.7895 13.046 46.2615 13.43 45.6255 13.694C45.0015 13.958 44.3115 14.09 43.5555 14.09ZM54.6825 14.09C53.6985 14.09 52.8345 13.886 52.0905 13.478C51.3465 13.058 50.7645 12.488 50.3445 11.768C49.9245 11.036 49.7145 10.202 49.7145 9.266C49.7145 8.33 49.9125 7.502 50.3085 6.782C50.7165 6.062 51.2685 5.498 51.9645 5.09C52.6725 4.67 53.4645 4.46 54.3405 4.46C55.2285 4.46 56.0145 4.664 56.6985 5.072C57.3945 5.468 57.9405 6.032 58.3365 6.764C58.7325 7.484 58.9305 8.318 58.9305 9.266C58.9305 9.326 58.9245 9.392 58.9125 9.464C58.9125 9.524 58.9125 9.59 58.9125 9.662H50.6865V8.708H58.2285L57.7245 9.086C57.7245 8.402 57.5745 7.796 57.2745 7.268C56.9865 6.728 56.5905 6.308 56.0865 6.008C55.5825 5.708 55.0005 5.558 54.3405 5.558C53.6925 5.558 53.1105 5.708 52.5945 6.008C52.0785 6.308 51.6765 6.728 51.3885 7.268C51.1005 7.808 50.9565 8.426 50.9565 9.122V9.32C50.9565 10.04 51.1125 10.676 51.4245 11.228C51.7485 11.768 52.1925 12.194 52.7565 12.506C53.3325 12.806 53.9865 12.956 54.7185 12.956C55.2945 12.956 55.8285 12.854 56.3205 12.65C56.8245 12.446 57.2565 12.134 57.6165 11.714L58.3365 12.542C57.9165 13.046 57.3885 13.43 56.7525 13.694C56.1285 13.958 55.4385 14.09 54.6825 14.09ZM0.684141 39.376V37.504L14.0401 20.8H16.9201L3.67214 37.504L2.26814 37.072H22.5361V39.376H0.684141ZM14.9041 46V39.376L14.9761 37.072V31.24H17.4961V46H14.9041ZM24.3786 46V44.164L34.8546 33.904C35.8146 32.968 36.5346 32.152 37.0146 31.456C37.4946 30.736 37.8186 30.064 37.9866 29.44C38.1546 28.816 38.2386 28.228 38.2386 27.676C38.2386 26.212 37.7346 25.06 36.7266 24.22C35.7426 23.38 34.2786 22.96 32.3346 22.96C30.8466 22.96 29.5266 23.188 28.3746 23.644C27.2466 24.1 26.2746 24.808 25.4586 25.768L23.6226 24.184C24.6066 23.032 25.8666 22.144 27.4026 21.52C28.9386 20.896 30.6546 20.584 32.5506 20.584C34.2546 20.584 35.7306 20.86 36.9786 21.412C38.2266 21.94 39.1866 22.72 39.8586 23.752C40.5546 24.784 40.9026 25.996 40.9026 27.388C40.9026 28.204 40.7826 29.008 40.5426 29.8C40.3266 30.592 39.9186 31.432 39.3186 32.32C38.7426 33.184 37.8906 34.168 36.7626 35.272L27.1506 44.704L26.4306 43.696H42.0546V46H24.3786ZM52.8315 46.216C51.0075 46.216 49.2795 45.928 47.6475 45.352C46.0395 44.752 44.7435 43.96 43.7595 42.976L45.0195 40.924C45.8355 41.764 46.9275 42.46 48.2955 43.012C49.6875 43.564 51.1995 43.84 52.8315 43.84C54.9195 43.84 56.5155 43.384 57.6195 42.472C58.7475 41.56 59.3115 40.336 59.3115 38.8C59.3115 37.264 58.7595 36.04 57.6555 35.128C56.5755 34.216 54.8595 33.76 52.5075 33.76H50.7075V31.852L58.4835 22.096L58.8435 23.104H44.8035V20.8H61.0035V22.636L53.2275 32.392L51.9675 31.564H52.9395C55.9635 31.564 58.2195 32.236 59.7075 33.58C61.2195 34.924 61.9755 36.652 61.9755 38.764C61.9755 40.18 61.6395 41.452 60.9675 42.58C60.2955 43.708 59.2755 44.596 57.9075 45.244C56.5635 45.892 54.8715 46.216 52.8315 46.216Z" fill="#202020"/>
</svg>
