<svg width="50" height="60" viewBox="0 0 50 60" fill="none" xmlns="http://www.w3.org/2000/svg">
<path fill-rule="evenodd" clip-rule="evenodd" d="M20.8621 0.833422C21.8213 0.209209 23.0506 0 24.2527 0H26.2646C27.4667 0 28.696 0.209209 29.6552 0.833422C30.4928 1.37848 31.0523 2.19476 31.2287 3.25419C36.0437 4.94755 39.2198 9.0118 39.7719 14.1248C41.2572 14.5313 42.3536 15.8847 42.3536 17.5C42.3536 18.6311 41.816 19.6339 40.9836 20.2729C41.8281 21.0897 42.3536 22.2325 42.3536 23.5C42.3536 25.9909 40.324 28 37.8329 28H37.1321C36.4282 31.3153 35.104 34.0249 32.7972 35.7919V38.5002H36.8269C38.9193 38.5002 40.7045 38.836 42.2227 39.4333C45.9648 40.9055 47.8865 43.879 48.8616 46.7713C49.8306 49.6452 49.8982 52.524 49.8982 54.0003V59.0003V60.0003H48.8982H41.8566H36.8269H25.2587H13.6904H8.6607H1.61914H0.619141V59.0003V54.0003C0.619141 52.524 0.686693 49.6452 1.65567 46.7713C2.63084 43.879 4.55252 40.9055 8.29459 39.4333C9.81277 38.836 11.598 38.5002 13.6904 38.5002H13.6905H13.6907H13.6909H13.6913H13.6916H13.6921H13.6926H13.6932H13.6939H13.6946H13.6954H13.6962H13.6972H13.6982H13.6992H13.7004H13.7016H13.7028H13.7042H13.7056H13.707H13.7086H13.7102H13.7118H13.7136H13.7153H13.7172H13.7191H13.7211H13.7232H13.7253H13.7275H13.7297H13.732H13.7344H13.7368H13.7393H13.7419H13.7445H13.7472H13.75H13.7528H13.7557H13.7586H13.7616H13.7647H13.7678H13.771H13.7742H13.7775H13.7809H13.7843H13.7878H13.7913H13.7949H13.7986H13.8023H13.8061H13.81H13.8139H13.8178H13.8219H13.8259H13.8301H13.8343H13.8385H13.8428H13.8472H13.8516H13.8561H13.8607H13.8653H13.8699H13.8746H13.8794H13.8842H13.8891H13.894H13.899H13.9041H13.9092H13.9143H13.9195H13.9248H13.9301H13.9355H13.9409H13.9464H13.9519H13.9575H13.9631H13.9688H13.9746H13.9804H13.9862H13.9921H13.9981H14.0041H14.0102H14.0163H14.0224H14.0286H14.0349H14.0412H14.0476H14.054H14.0605H14.067H14.0735H14.0802H14.0868H14.0935H14.1003H14.1071H14.114H14.1209H14.1278H14.1349H14.1419H14.149H14.1562H14.1634H14.1706H14.1779H14.1852H14.1926H14.2001H14.2075H14.2151H14.2226H14.2302H14.2379H14.2456H14.2534H14.2612H14.269H14.2769H14.2848H14.2928H14.3008H14.3089H14.317H14.3251H14.3333H14.3416H14.3498H14.3582H14.3665H14.3749H14.3834H14.3919H14.4004H14.409H14.4176H14.4263H14.435H14.4437H14.4525H14.4613H14.4702H14.4791H14.488H14.497H14.506H14.5151H14.5242H14.5333H14.5425H14.5517H14.561H14.5703H14.5796H14.589H14.5984H14.6078H14.6173H14.6268H14.6364H14.646H14.6556H14.6653H14.675H14.6847H14.6945H14.7043H14.7141H14.724H14.7339H14.7439H14.7539H14.7639H14.774H14.784H14.7942H14.8043H14.8145H14.8247H14.835H14.8453H14.8556H14.866H14.8764H14.8868H14.8972H14.9077H14.9182H14.9288H14.9394H14.95H14.9606H14.9713H14.982H14.9927H15.0035H15.0143H15.0251H15.036H15.0469H15.0578H15.0687H15.0797H15.0907H15.1017H15.1128H15.1239H15.135H15.1461H15.1573H15.1685H15.1797H15.191H15.2022H15.2135H15.2249H15.2362H15.2476H15.259H15.2705H15.2819H15.2934H15.3049H15.3165H15.328H15.3396H15.3512H15.3629H15.3745H15.3862H15.3979H15.4096H15.4214H15.4332H15.445H15.4568H15.4686H15.4805H15.4924H15.5043H15.5163H15.5282H15.5402H15.5522H15.5642H15.5763H15.5883H15.6004H15.6125H15.6246H15.6368H15.6489H15.6611H15.6733H15.6856H15.6978H15.7101H15.7223H15.7346H15.7469H15.7593H15.7716H15.784H15.7964H15.8088H15.8212H15.8337H15.8461H15.8586H15.8711H15.8836H15.8961H15.9087H15.9212H15.9338H15.9464H15.959H15.9716H15.9842H15.9969H16.0095H16.0222H16.0349H16.0476H16.0603H16.073H16.0858H16.0985H16.1113H16.1241H16.1369H16.1497H16.1625H16.1753H16.1882H16.201H16.2139H16.2268H16.2397H16.2526H16.2655H16.2784H16.2913H16.3043H16.3172H16.3302H16.3431H16.3561H16.3691H16.3821H16.3951H16.4081H16.4212H16.4342H16.4472H16.4603H16.4733H16.4864H16.4995H16.5125H16.5256H16.5387H16.5518H16.5649H16.578H16.5912H16.6043H16.6174H16.6305H16.6437H16.6568H16.67H16.6831H16.6963H16.7095H16.7226H16.7358H16.749H16.7622H16.7753H16.7885H16.8017H16.8149H16.8281H16.8413H16.8545H16.8677H16.8809H16.8941H16.9073H16.9205H16.9338H16.947H16.9602H16.9734H16.9866H16.9998H17.013H17.0263H17.0395H17.0527H17.0659H17.0791H17.0923H17.1055H17.1187H17.1319H17.1451H17.1583H17.1716H17.1847H17.1979H17.2111H17.2243H17.2375H17.2507H17.2639H17.2771H17.2902H17.3034H17.3166H17.3297H17.3429H17.356H17.3692H17.3823H17.3955H17.4086H17.4217H17.4349H17.448H17.4611H17.4742H17.4873H17.5004H17.5134H17.5265H17.5396H17.5526H17.5657H17.5787H17.5918H17.6048H17.6178H17.6308H17.6438H17.6568H17.6698H17.6828H17.6957H17.7087H17.7201V38.499V38.488V38.477V38.4661V38.4551V38.4441V38.4331V38.4221V38.4111V38.4001V38.389V38.378V38.367V38.356V38.3449V38.3339V38.3229V38.3118V38.3008V38.2897V38.2787V38.2676V38.2565V38.2455V38.2344V38.2233V38.2123V38.2012V38.1901V38.1791V38.168V38.1569V38.1458V38.1347V38.1236V38.1126V38.1015V38.0904V38.0793V38.0682V38.0571V38.0461V38.035V38.0239V38.0128V38.0017V37.9906V37.9796V37.9685V37.9574V37.9463V37.9352V37.9242V37.9131V37.902V37.891V37.8799V37.8688V37.8578V37.8467V37.8357V37.8246V37.8136V37.8025V37.7915V37.7804V37.7694V37.7584V37.7474V37.7363V37.7253V37.7143V37.7033V37.6923V37.6813V37.6703V37.6593V37.6484V37.6374V37.6264V37.6155V37.6045V37.5936V37.5826V37.5717V37.5608V37.5499V37.5389V37.528V37.5171V37.5063V37.4954V37.4845V37.4736V37.4628V37.4519V37.4411V37.4303V37.4194V37.4086V37.3978V37.387V37.3763V37.3655V37.3547V37.344V37.3332V37.3225V37.3118V37.301V37.2903V37.2797V37.269V37.2583V37.2477V37.237V37.2264V37.2158V37.2052V37.1946V37.184V37.1734V37.1628V37.1523V37.1418V37.1312V37.1207V37.1103V37.0998V37.0893V37.0789V37.0684V37.058V37.0476V37.0372V37.0268V37.0165V37.0061V36.9958V36.9855V36.9752V36.9649V36.9546V36.9444V36.9341V36.9239V36.9137V36.9035V36.8933V36.8832V36.873V36.8629V36.8528V36.8427V36.8327V36.8226V36.8126V36.8026V36.7926V36.7826V36.7726V36.7627V36.7528V36.7429V36.733V36.7231V36.7133V36.7035V36.6937V36.6839V36.6741V36.6644V36.6547V36.645V36.6353V36.6256V36.616V36.6064V36.5968V36.5872V36.5777V36.5681V36.5586V36.5492V36.5397V36.5303V36.5208V36.5114V36.5021V36.4927V36.4834V36.4741V36.4648V36.4556V36.4463V36.4371V36.428V36.4188V36.4097V36.4006V36.3915V36.3824V36.3734V36.3644V36.3554V36.3465V36.3375V36.3286V36.3198V36.3109V36.3021V36.2933V36.2845V36.2758V36.2671V36.2584V36.2497V36.2411V36.2325V36.2239V36.2154V36.2068V36.1983V36.1899V36.1814V36.173V36.1647V36.1563V36.148V36.1397V36.1314V36.1232V36.115V36.1068V36.0987V36.0906V36.0825V36.0745V36.0664V36.0585V36.0505V36.0426V36.0347V36.0268V36.019V36.0112V36.0034V35.9957V35.988V35.9803V35.9727V35.9651V35.9575V35.95V35.9425V35.935V35.9276V35.9202V35.9128V35.9055V35.8982V35.8909V35.8837V35.8765V35.8694V35.8622V35.8551V35.8481V35.8411V35.8341V35.8271V35.8202V35.8134V35.8065V35.7997V35.7952C15.4176 34.0674 13.6689 31.397 12.8894 27.9999L11.6786 28H11.6785C9.18734 28 7.15773 25.9909 7.15773 23.5C7.15773 22.2325 7.68329 21.0897 8.5278 20.2729C7.69539 19.6339 7.15773 18.6311 7.15773 17.5C7.15773 15.8823 8.25743 14.5272 9.74625 14.123C10.3915 8.91408 14.4996 4.91195 19.2889 3.25254C19.4656 2.19391 20.0249 1.3782 20.8621 0.833422ZM19.229 5.41104C15.4321 6.95948 12.4262 10.1295 11.7852 14H37.7421C37.2077 10.0615 34.8522 6.94533 31.2883 5.42217V11C31.2883 11.5523 30.8406 12 30.2883 12C29.7361 12 29.2883 11.5523 29.2883 11V4C29.2883 3.21801 28.9961 2.79066 28.5644 2.50972C28.0673 2.18622 27.2848 2 26.2646 2H24.2527C23.2325 2 22.45 2.18622 21.9529 2.50972C21.5212 2.79066 21.229 3.21801 21.229 4V11C21.229 11.5523 20.7813 12 20.229 12C19.6767 12 19.229 11.5523 19.229 11V5.41104ZM11.6785 21C10.2807 21 9.15773 22.1249 9.15773 23.5C9.15773 24.8751 10.2807 25.9999 11.6784 26H11.6785L12.5392 25.9999C12.3304 24.4512 12.2235 22.7789 12.1952 21H11.6785ZM14.1955 21C14.231 23.1531 14.3852 25.1001 14.691 26.8252C15.318 30.3617 17.0672 32.95 19.2818 34.4535C20.7296 35.4365 22.6613 36.0002 25.2587 36.0002C27.856 36.0002 29.7877 35.4365 31.2355 34.4535C33.3792 32.9981 34.677 30.4709 35.3233 26.8254C35.6291 25.1003 35.7834 23.1532 35.8189 21H14.1955ZM37.8191 21C37.7908 22.779 37.6839 24.4513 37.4751 26H37.8329C39.2306 26 40.3536 24.8751 40.3536 23.5C40.3536 22.1249 39.2306 21 37.8329 21H37.8191ZM19.7201 36.9693V36.9752V36.9855V36.9958V37.0061V37.0165V37.0268V37.0372V37.0476V37.058V37.0684V37.0789V37.0893V37.0998V37.1103V37.1207V37.1312V37.1418V37.1523V37.1628V37.1734V37.184V37.1946V37.2052V37.2158V37.2264V37.237V37.2477V37.2583V37.269V37.2797V37.2903V37.301V37.3118V37.3225V37.3332V37.344V37.3547V37.3655V37.3763V37.387V37.3978V37.4086V37.4194V37.4303V37.4411V37.4519V37.4628V37.4736V37.4845V37.4954V37.5063V37.5171V37.528V37.5389V37.5499V37.5608V37.5717V37.5826V37.5936V37.6045V37.6155V37.6264V37.6374V37.6484V37.6593V37.6703V37.6813V37.6923V37.7033V37.7143V37.7253V37.7363V37.7474V37.7584V37.7694V37.7804V37.7915V37.8025V37.8136V37.8246V37.8357V37.8467V37.8578V37.8688V37.8799V37.891V37.902V37.9131V37.9242V37.9352V37.9463V37.9574V37.9685V37.9796V37.9906V38.0017V38.0128V38.0239V38.035V38.0461V38.0571V38.0682V38.0793V38.0904V38.1015V38.1126V38.1236V38.1347V38.1458V38.1569V38.168V38.1791V38.1901V38.2012V38.2123V38.2233V38.2344V38.2455V38.2565V38.2676V38.2787V38.2897V38.3008V38.3118V38.3229V38.3339V38.3449V38.356V38.367V38.378V38.389V38.4001V38.4111V38.4221V38.4331V38.4441V38.4551V38.4661V38.477V38.488V38.499V38.5099V38.5209V38.5318V38.5428V38.5537V38.5647V38.5756V38.5865V38.5974V38.6083V38.6192V38.6301V38.6409V38.6518V38.6627V38.6735V38.6844V38.6952V38.706V38.7168V38.7276V38.7384V38.7492V38.76V38.7708V38.7815V38.7923V38.803V38.8137V38.8245V38.8352V38.8459V38.8565V38.8672V38.8779V38.8885V38.8992V38.9098V38.9204V38.931V38.9416V38.9521V38.9627V38.9733V38.9838V38.9943V39.0048V39.0153V39.0258V39.0363V39.0467V39.0572V39.0676V39.078V39.0884V39.0988V39.1058L25.2587 45.0353L30.7972 39.1058V36.9693C29.231 37.6573 27.3904 38.0002 25.2587 38.0002C23.1269 38.0002 21.2863 37.6573 19.7201 36.9693ZM32.2316 40.5002L26.4608 46.6782C27.5207 48.8872 28.1276 50.8 28.1444 52.7607C28.159 54.4739 27.7229 56.1427 26.8745 58.0003H35.8269V55C35.8269 54.4477 36.2746 54 36.8269 54C37.3792 54 37.8269 54.4477 37.8269 55V58.0003H40.8566V41.0695C39.9763 40.7897 38.9727 40.5999 37.8269 40.53V48C37.8269 48.5523 37.3792 49 36.8269 49C36.2746 49 35.8269 48.5523 35.8269 48V40.5002H32.2316ZM42.8566 41.9664V58.0003H47.8982V54.0003C47.8982 52.5718 47.8271 49.963 46.9665 47.4102C46.2511 45.2885 45.0139 43.2663 42.8566 41.9664ZM24.6533 58.0003C25.7066 55.9307 26.1577 54.3296 26.1444 52.7778C26.1303 51.1176 25.5842 49.3901 24.4295 47.0775L18.2858 40.5002H18.2785H18.2662H18.2539H18.2415H18.2291H18.2168H18.2043H18.1919H18.1795H18.167H18.1545H18.142H18.1295H18.117H18.1044H18.0919H18.0793H18.0667H18.0541H18.0415H18.0289H18.0162H18.0035H17.9909H17.9782H17.9655H17.9527H17.94H17.9273H17.9145H17.9017H17.8889H17.8761H17.8633H17.8505H17.8377H17.8248H17.812H17.7991H17.7862H17.7733H17.7604H17.7475H17.7346H17.7216H17.7087H17.6957H17.6828H17.6698H17.6568H17.6438H17.6308H17.6178H17.6048H17.5918H17.5787H17.5657H17.5526H17.5396H17.5265H17.5134H17.5004H17.4873H17.4742H17.4611H17.448H17.4349H17.4217H17.4086H17.3955H17.3823H17.3692H17.356H17.3429H17.3297H17.3166H17.3034H17.2902H17.2771H17.2639H17.2507H17.2375H17.2243H17.2111H17.1979H17.1847H17.1716H17.1583H17.1451H17.1319H17.1187H17.1055H17.0923H17.0791H17.0659H17.0527H17.0395H17.0263H17.013H16.9998H16.9866H16.9734H16.9602H16.947H16.9338H16.9205H16.9073H16.8941H16.8809H16.8677H16.8545H16.8413H16.8281H16.8149H16.8017H16.7885H16.7753H16.7622H16.749H16.7358H16.7226H16.7095H16.6963H16.6831H16.67H16.6568H16.6437H16.6305H16.6174H16.6043H16.5912H16.578H16.5649H16.5518H16.5387H16.5256H16.5125H16.4995H16.4864H16.4733H16.4603H16.4472H16.4342H16.4212H16.4081H16.3951H16.3821H16.3691H16.3561H16.3431H16.3302H16.3172H16.3043H16.2913H16.2784H16.2655H16.2526H16.2397H16.2268H16.2139H16.201H16.1882H16.1753H16.1625H16.1497H16.1369H16.1241H16.1113H16.0985H16.0858H16.073H16.0603H16.0476H16.0349H16.0222H16.0095H15.9969H15.9842H15.9716H15.959H15.9464H15.9338H15.9212H15.9087H15.8961H15.8836H15.8711H15.8586H15.8461H15.8337H15.8212H15.8088H15.7964H15.784H15.7716H15.7593H15.7469H15.7346H15.7223H15.7101H15.6978H15.6856H15.6733H15.6611H15.6489H15.6368H15.6246H15.6125H15.6004H15.5883H15.5763H15.5642H15.5522H15.5402H15.5282H15.5163H15.5043H15.4924H15.4805H15.4686H15.4568H15.445H15.4332H15.4214H15.4096H15.3979H15.3862H15.3745H15.3629H15.3512H15.3396H15.328H15.3165H15.3049H15.2934H15.2819H15.2705H15.259H15.2476H15.2362H15.2249H15.2135H15.2022H15.191H15.1797H15.1685H15.1573H15.1461H15.135H15.1239H15.1128H15.1017H15.0907H15.0797H15.0687H15.0578H15.0469H15.036H15.0251H15.0143H15.0035H14.9927H14.982H14.9713H14.9606H14.95H14.9394H14.9288H14.9182H14.9077H14.8972H14.8868H14.8764H14.866H14.8556H14.8453H14.835H14.8247H14.8145H14.8043H14.7942H14.784H14.774H14.7639H14.7539H14.7439H14.7339H14.724H14.7141H14.7043H14.6945H14.6904V48C14.6904 48.5523 14.2427 49 13.6904 49C13.1381 49 12.6904 48.5523 12.6904 48V40.53C11.5447 40.5999 10.541 40.7897 9.6607 41.0695V58.0003H12.6904V55C12.6904 54.4477 13.1381 54 13.6904 54C14.2427 54 14.6904 54.4477 14.6904 55V58.0003H24.6533ZM7.6607 58.0003V41.9664C5.50344 43.2663 4.26622 45.2885 3.55085 47.4102C2.69016 49.963 2.61914 52.5718 2.61914 54.0003V58.0003H7.6607ZM37.8329 19H38.8388C39.681 19 40.3536 18.3229 40.3536 17.5C40.3536 16.6771 39.681 16 38.8388 16H10.6726C9.83036 16 9.15773 16.6771 9.15773 17.5C9.15773 18.3229 9.83036 19 10.6726 19H11.6785H13.1874H36.8269H37.8329ZM13.6904 52.5C13.9549 52.5 14.2145 52.393 14.4015 52.207C14.5886 52.021 14.6963 51.763 14.6963 51.5C14.6963 51.236 14.5887 50.979 14.4015 50.793C14.2145 50.606 13.9549 50.5 13.6904 50.5C13.4258 50.5 13.1663 50.606 12.9792 50.793C12.7921 50.979 12.6844 51.236 12.6844 51.5C12.6844 51.763 12.792 52.021 12.9792 52.207C13.1663 52.393 13.4258 52.5 13.6904 52.5ZM37.538 52.207C37.351 52.393 37.0915 52.5 36.8269 52.5C36.5624 52.5 36.3028 52.393 36.1157 52.207C35.9285 52.021 35.821 51.763 35.821 51.5C35.821 51.236 35.9286 50.979 36.1157 50.793C36.3028 50.606 36.5624 50.5 36.8269 50.5C37.0915 50.5 37.351 50.606 37.538 50.793C37.7252 50.979 37.8329 51.236 37.8329 51.5C37.8329 51.763 37.7251 52.021 37.538 52.207Z" fill="#202020"/>
</svg>
