<svg width="61" height="60" viewBox="0 0 61 60" fill="none" xmlns="http://www.w3.org/2000/svg">
<path fill-rule="evenodd" clip-rule="evenodd" d="M0.490234 0H1.49023H34.6861H35.0986L35.3912 0.290804L45.9535 10.7908L46.2485 11.0841V11.5V32H59.8346H60.8346V33V59V60H59.8346H12.5555H1.49023H0.490234V59V35C0.490234 34.4477 0.93795 34 1.49023 34C2.04252 34 2.49023 34.4477 2.49023 35V58H11.5555V33V32H12.5555H44.2485V12.5H34.6861H33.6861V11.5V2H2.49023V25C2.49023 25.5523 2.04252 26 1.49023 26C0.93795 26 0.490234 25.5523 0.490234 25V1V0ZM35.6861 3.40414L42.8241 10.5H35.6861V3.40414ZM13.5555 58H58.8346V34H45.2485H13.5555V58ZM7.02882 12C7.02882 11.4477 7.47654 11 8.02882 11H12.5555C13.1078 11 13.5555 11.4477 13.5555 12C13.5555 12.5523 13.1078 13 12.5555 13H8.02882C7.47654 13 7.02882 12.5523 7.02882 12ZM18.5971 12C18.5971 11.4477 19.0448 11 19.5971 11H25.6327C26.185 11 26.6327 11.4477 26.6327 12C26.6327 12.5523 26.185 13 25.6327 13H19.5971C19.0448 13 18.5971 12.5523 18.5971 12ZM7.02882 19C7.02882 18.4477 7.47654 18 8.02882 18H25.6327C26.185 18 26.6327 18.4477 26.6327 19C26.6327 19.5523 26.185 20 25.6327 20H8.02882C7.47654 20 7.02882 19.5523 7.02882 19ZM31.6743 19C31.6743 18.4477 32.122 18 32.6743 18H37.704C38.2562 18 38.704 18.4477 38.704 19C38.704 19.5523 38.2562 20 37.704 20H32.6743C32.122 20 31.6743 19.5523 31.6743 19ZM7.02882 26C7.02882 25.4477 7.47654 25 8.02882 25H14.5674C15.1197 25 15.5674 25.4477 15.5674 26C15.5674 26.5523 15.1197 27 14.5674 27H8.02882C7.47654 27 7.02882 26.5523 7.02882 26ZM20.609 26C20.609 25.4477 21.0567 25 21.609 25H37.704C38.2562 25 38.704 25.4477 38.704 26C38.704 26.5523 38.2562 27 37.704 27H21.609C21.0567 27 20.609 26.5523 20.609 26ZM21.6149 37H22.6149H49.7752H50.7752V38C50.7752 39.2614 51.188 40.0865 51.8069 40.6138C52.4502 41.162 53.4481 41.5 54.8049 41.5H55.8049V42.5V49.5V50.5H54.8049C53.4481 50.5 52.4502 50.838 51.8069 51.3862C51.188 51.9135 50.7752 52.7386 50.7752 54V55H49.7752H22.6149H21.6149V54C21.6149 52.7386 21.2021 51.9135 20.5832 51.3862C19.9398 50.838 18.942 50.5 17.5852 50.5H16.5852V49.5V42.5V41.5H17.5852C18.942 41.5 19.9398 41.162 20.5832 40.6138C21.2021 40.0865 21.6149 39.2614 21.6149 38V37ZM23.5447 39C23.357 40.288 22.7945 41.3572 21.8803 42.1362C20.992 42.8931 19.8507 43.3086 18.5852 43.4471V48.5529C19.8507 48.6914 20.992 49.1069 21.8803 49.8638C22.7945 50.6428 23.357 51.712 23.5447 53H48.8454C49.0331 51.712 49.5956 50.6428 50.5098 49.8638C51.3981 49.1069 52.5394 48.6914 53.8049 48.5529V43.4471C52.5394 43.3086 51.3981 42.8931 50.5098 42.1362C49.5956 41.3572 49.0331 40.288 48.8454 39H23.5447ZM36.195 43.5C34.7973 43.5 33.6743 44.6249 33.6743 46C33.6743 47.3751 34.7973 48.5 36.195 48.5C37.5928 48.5 38.7158 47.3751 38.7158 46C38.7158 44.6249 37.5928 43.5 36.195 43.5ZM31.6743 46C31.6743 43.5091 33.7039 41.5 36.195 41.5C38.6862 41.5 40.7158 43.5091 40.7158 46C40.7158 48.4909 38.6862 50.5 36.195 50.5C33.7039 50.5 31.6743 48.4909 31.6743 46Z" fill="#202020"/>
</svg>
