<svg width="58" height="56" viewBox="0 0 58 56" fill="none" xmlns="http://www.w3.org/2000/svg">
<path fill-rule="evenodd" clip-rule="evenodd" d="M0.90625 0H1.90625H13.9775H14.3813L14.6719 0.280403L31.559 16.576C31.6053 16.4801 31.6564 16.3858 31.7127 16.2939C32.1798 15.5308 32.9689 15 34.0962 15C34.8078 15 35.4194 15.2124 35.9015 15.6162C36.3669 16.006 36.6386 16.5129 36.802 16.9865C37.1088 17.8761 37.1084 18.8911 37.1081 19.454L37.1081 19.5V33.5H51.7061V19.5L51.706 19.454C51.7058 18.8911 51.7053 17.8761 52.0122 16.9865C52.1755 16.5129 52.4473 16.006 52.9127 15.6162C53.3947 15.2124 54.0064 15 54.7179 15C55.4295 15 56.0411 15.2124 56.5232 15.6162C56.9886 16.006 57.2603 16.5129 57.4237 16.9865C57.7305 17.8761 57.7301 18.8911 57.7298 19.454L57.7298 19.5V55V56H56.7298H52.7061H36.1081H32.0844H31.6719L31.3793 55.7092L1.20124 25.7092L0.90625 25.4159V25V23V4.5V1V0ZM51.7061 35.5H37.1081V37.5H51.7061V35.5ZM51.7061 39.5H37.1081V43H51.7061V39.5ZM51.7061 45H37.1081V48.5H51.7061V45ZM51.7061 50.5H37.1081V54H51.7061V50.5ZM53.7061 54H55.7298V20.5H53.7061V34.5V38.5V44V49.5V54ZM53.7377 18.5H55.6981C55.6715 18.1945 55.6226 17.8984 55.533 17.6385C55.4448 17.383 55.3394 17.2335 55.2389 17.1494C55.1551 17.0792 55.0123 17 54.7179 17C54.4236 17 54.2807 17.0792 54.1969 17.1494C54.0965 17.2335 53.991 17.383 53.9029 17.6385C53.8133 17.8984 53.7644 18.1945 53.7377 18.5ZM35.1081 54V49.5V44V38.5V34.5V20.5H33.0844V24V34.5V54H35.1081ZM31.0844 52.5959L2.90625 24.5841V24H9.45671V27V28H10.4567H17.0012V30.5V31.5H18.0012H24.5458V34.5V35.5H25.5458H31.0844V52.5959ZM31.0844 33.5V24.4234L26.5458 20.0244V30.5V33.5H31.0844ZM24.5458 18.0859L19.0012 12.7119V27V29.5H24.5458V18.0859ZM17.0012 10.7734L11.5605 5.5H11.4567V23V26H17.0012V10.7734ZM9.45671 5.5V22H2.90625V5.5H9.45671ZM2.90625 3.5H10.4567H11.9656H12.3707L12.6616 3.78194L18.6972 9.63194L26.2417 16.9444L31.0844 21.6381V19.5V19.4899V19.4894C31.0844 19.3249 31.0844 19.1243 31.0908 18.9036L13.5737 2H2.90625V3.5ZM33.1161 18.5H35.0764C35.0498 18.1945 35.0009 17.8984 34.9113 17.6385C34.8231 17.383 34.7177 17.2335 34.6172 17.1494C34.5334 17.0792 34.3906 17 34.0962 17C33.6976 17 33.5394 17.1405 33.4185 17.338C33.259 17.5985 33.1606 18.0012 33.1161 18.5ZM15.9953 34.5C15.9953 33.9477 16.443 33.5 16.9953 33.5H22.025H23.025V34.5V37.5H28.0606H29.0606V38.5V42C29.0606 42.5523 28.6129 43 28.0606 43C27.5083 43 27.0606 42.5523 27.0606 42V39.5H22.025H21.025V38.5V35.5H16.9953C16.443 35.5 15.9953 35.0523 15.9953 34.5ZM13.9776 32C14.2422 32 14.5017 31.893 14.6887 31.707C14.8758 31.521 14.9836 31.263 14.9836 31C14.9836 30.736 14.8759 30.479 14.6887 30.293C14.5017 30.106 14.2422 30 13.9776 30C13.7131 30 13.4535 30.106 13.2664 30.293C13.0793 30.479 12.9717 30.736 12.9717 31C12.9717 31.263 13.0792 31.521 13.2664 31.707C13.4535 31.893 13.7131 32 13.9776 32ZM28.7717 46.707C28.5847 46.893 28.3252 47 28.0606 47C27.7961 47 27.5365 46.893 27.3494 46.707C27.1622 46.521 27.0547 46.263 27.0547 46C27.0547 45.736 27.1623 45.479 27.3494 45.293C27.5365 45.106 27.7961 45 28.0606 45C28.3252 45 28.5847 45.106 28.7717 45.293C28.9589 45.479 29.0666 45.736 29.0666 46C29.0666 46.263 28.9588 46.521 28.7717 46.707Z" fill="#202020"/>
</svg>
