<svg width="97" height="96" viewBox="0 0 97 96" fill="none" xmlns="http://www.w3.org/2000/svg">
<path fill-rule="evenodd" clip-rule="evenodd" d="M0 0H5.02968V5H0V0ZM13.0772 0H18.1069V5H13.0772V0ZM31.184 0H26.1544V5H31.184V0ZM39.2315 0H44.2612V5H39.2315V0ZM57.3384 0H52.3087V5H57.3384V0ZM65.3859 0H70.4156V5H65.3859V0ZM83.4927 0H78.4631V5H83.4927V0ZM91.5402 0H96.5699V5H91.5402V0ZM5.02968 13H0V18H5.02968V13ZM18.1069 13H13.0772V18H18.1069V13ZM26.1544 13H31.184V18H26.1544V13ZM44.2612 13H39.2315V18H44.2612V13ZM52.3087 13H57.3384V18H52.3087V13ZM70.4156 13H65.3859V18H70.4156V13ZM78.4631 13H83.4927V18H78.4631V13ZM96.5699 13H91.5402V18H96.5699V13ZM0 26H5.02968V31H0V26ZM13.0772 26H18.1069V31H13.0772V26ZM31.184 26H26.1544V31H31.184V26ZM39.2315 26H44.2612V31H39.2315V26ZM57.3384 26H52.3087V31H57.3384V26ZM65.3859 26H70.4156V31H65.3859V26ZM83.4927 26H78.4631V31H83.4927V26ZM91.5402 26H96.5699V31H91.5402V26ZM5.02968 39H0V44H5.02968V39ZM18.1069 39H13.0772V44H18.1069V39ZM26.1544 39H31.184V44H26.1544V39ZM44.2612 39H39.2315V44H44.2612V39ZM52.3087 39H57.3384V44H52.3087V39ZM70.4156 39H65.3859V44H70.4156V39ZM78.4631 39H83.4927V44H78.4631V39ZM96.5699 39H91.5402V44H96.5699V39ZM0 52H5.02968V57H0V52ZM13.0772 52H18.1069V57H13.0772V52ZM31.184 52H26.1544V57H31.184V52ZM39.2315 52H44.2612V57H39.2315V52ZM57.3384 52H52.3087V57H57.3384V52ZM65.3859 52H70.4156V57H65.3859V52ZM83.4927 52H78.4631V57H83.4927V52ZM91.5402 52H96.5699V57H91.5402V52ZM5.02968 65H0V70H5.02968V65ZM18.1069 65H13.0772V70H18.1069V65ZM26.1544 65H31.184V70H26.1544V65ZM44.2612 65H39.2315V70H44.2612V65ZM52.3087 65H57.3384V70H52.3087V65ZM70.4156 65H65.3859V70H70.4156V65ZM78.4631 65H83.4927V70H78.4631V65ZM96.5699 65H91.5402V70H96.5699V65ZM0 78H5.02968V83H0V78ZM13.0772 78H18.1069V83H13.0772V78ZM31.184 78H26.1544V83H31.184V78ZM39.2315 78H44.2612V83H39.2315V78ZM57.3384 78H52.3087V83H57.3384V78ZM65.3859 78H70.4156V83H65.3859V78ZM83.4927 78H78.4631V83H83.4927V78ZM91.5402 78H96.5699V83H91.5402V78ZM0 91H5.02968V96H0V91ZM13.0772 91H18.1069V96H13.0772V91ZM31.184 91H26.1544V96H31.184V91ZM39.2315 91H44.2612V96H39.2315V91ZM57.3384 91H52.3087V96H57.3384V91ZM65.3859 91H70.4156V96H65.3859V91ZM83.4927 91H78.4631V96H83.4927V91ZM91.5402 91H96.5699V96H91.5402V91Z" fill="#FDE4CF"/>
</svg>
