<svg width="125" height="50" viewBox="0 0 125 50" fill="none" xmlns="http://www.w3.org/2000/svg">
<path d="M62.1384 44.2101C62.1384 44.3952 62.1248 44.6587 62.0977 45.0006H53.5726C53.7218 45.8409 54.1084 46.5103 54.7323 47.0088C55.3698 47.4931 56.1566 47.7352 57.0925 47.7352C58.2861 47.7352 59.2695 47.3222 60.0427 46.4961L61.4059 48.1411C60.9176 48.7536 60.3004 49.2165 59.5544 49.5298C58.8084 49.8432 57.9674 49.9998 57.0315 49.9998C55.8378 49.9998 54.7866 49.7506 53.8778 49.2521C52.969 48.7536 52.2636 48.0628 51.7618 47.1797C51.2735 46.2824 51.0293 45.2712 51.0293 44.146C51.0293 43.035 51.2667 42.038 51.7414 41.1549C52.2297 40.2576 52.9012 39.5597 53.7557 39.0612C54.6102 38.5627 55.5733 38.3135 56.6449 38.3135C57.7029 38.3135 58.6456 38.5627 59.473 39.0612C60.314 39.5455 60.9651 40.2363 61.4262 41.1336C61.901 42.0167 62.1384 43.0421 62.1384 44.2101ZM56.6449 40.4499C55.831 40.4499 55.1392 40.7063 54.5696 41.219C54.0134 41.7175 53.6743 42.387 53.5522 43.2273H59.7172C59.6086 42.4012 59.2763 41.7318 58.7202 41.219C58.1641 40.7063 57.4723 40.4499 56.6449 40.4499Z" fill="#202020"/>
<path d="M69.8642 49.9998C68.7384 49.9998 67.7279 49.7506 66.8326 49.2521C65.9374 48.7536 65.2388 48.0628 64.737 47.1797C64.2351 46.2824 63.9842 45.2712 63.9842 44.146C63.9842 43.0208 64.2351 42.0167 64.737 41.1336C65.2388 40.2505 65.9306 39.5597 66.8123 39.0612C67.7075 38.5627 68.7248 38.3135 69.8642 38.3135C70.9358 38.3135 71.8717 38.5414 72.672 38.9971C73.4859 39.4529 74.0963 40.1081 74.5032 40.9627L72.5499 42.1591C72.238 41.6321 71.8446 41.2404 71.3699 40.984C70.9087 40.7134 70.4 40.5781 69.8439 40.5781C68.8944 40.5781 68.1077 40.9057 67.4837 41.5609C66.8598 42.2018 66.5478 43.0635 66.5478 44.146C66.5478 45.2284 66.853 46.0973 67.4634 46.7524C68.0873 47.3934 68.8808 47.7138 69.8439 47.7138C70.4 47.7138 70.9087 47.5857 71.3699 47.3293C71.8446 47.0587 72.238 46.6599 72.5499 46.1329L74.5032 47.3293C74.0827 48.1839 73.4655 48.8462 72.6517 49.3162C71.8514 49.772 70.9222 49.9998 69.8642 49.9998Z" fill="#202020"/>
<path d="M86.7566 44.2101C86.7566 44.3952 86.743 44.6587 86.7159 45.0006H78.1908C78.34 45.8409 78.7266 46.5103 79.3505 47.0088C79.988 47.4931 80.7748 47.7352 81.7107 47.7352C82.9043 47.7352 83.8878 47.3222 84.6609 46.4961L86.0241 48.1411C85.5358 48.7536 84.9186 49.2165 84.1726 49.5298C83.4266 49.8432 82.5856 49.9998 81.6497 49.9998C80.456 49.9998 79.4048 49.7506 78.496 49.2521C77.5872 48.7536 76.8818 48.0628 76.38 47.1797C75.8917 46.2824 75.6475 45.2712 75.6475 44.146C75.6475 43.035 75.8849 42.038 76.3596 41.1549C76.8479 40.2576 77.5194 39.5597 78.3739 39.0612C79.2285 38.5627 80.1915 38.3135 81.2631 38.3135C82.3211 38.3135 83.2638 38.5627 84.0912 39.0612C84.9322 39.5455 85.5833 40.2363 86.0445 41.1336C86.5192 42.0167 86.7566 43.0421 86.7566 44.2101ZM81.2631 40.4499C80.4492 40.4499 79.7575 40.7063 79.1878 41.219C78.6316 41.7175 78.2925 42.387 78.1704 43.2273H84.3354C84.2269 42.4012 83.8945 41.7318 83.3384 41.219C82.7823 40.7063 82.0905 40.4499 81.2631 40.4499Z" fill="#202020"/>
<path d="M89.5383 38.4417H92.0816V43.0778H97.5547V38.4417H100.098V49.8503H97.5547V45.3424H92.0816V49.8503H89.5383V38.4417Z" fill="#202020"/>
<path d="M108.023 45.2783H106.05V49.8503H103.507V38.4417H106.05V43.0564H108.084L111.299 38.4417H114.026L110.078 43.9323L114.29 49.8503H111.299L108.023 45.2783Z" fill="#202020"/>
<path d="M119.934 38.3135C121.535 38.3135 122.755 38.7194 123.596 39.5313C124.451 40.3289 124.878 41.5395 124.878 43.1632V49.8503H122.477V48.4616C122.165 48.9601 121.718 49.3447 121.134 49.6153C120.565 49.8717 119.873 49.9998 119.059 49.9998C118.245 49.9998 117.533 49.8574 116.923 49.5726C116.312 49.2734 115.838 48.8675 115.499 48.3548C115.173 47.8278 115.01 47.2367 115.01 46.5815C115.01 45.556 115.37 44.7371 116.089 44.1246C116.821 43.4979 117.967 43.1846 119.527 43.1846H122.335V43.0137C122.335 42.2161 122.104 41.6036 121.643 41.1763C121.196 40.749 120.524 40.5354 119.629 40.5354C119.018 40.5354 118.415 40.6351 117.818 40.8345C117.235 41.0339 116.74 41.3116 116.333 41.6677L115.336 39.7235C115.905 39.2678 116.59 38.9188 117.391 38.6767C118.191 38.4345 119.039 38.3135 119.934 38.3135ZM119.588 48.0557C120.226 48.0557 120.789 47.9061 121.277 47.607C121.779 47.2937 122.131 46.8521 122.335 46.2824V44.9578H119.71C118.245 44.9578 117.513 45.4635 117.513 46.4747C117.513 46.959 117.696 47.3435 118.062 47.6284C118.428 47.9132 118.937 48.0557 119.588 48.0557Z" fill="#202020"/>
<path d="M0.264926 46.8391L0 47.0477V49.6634L0.264926 49.8504H20.356L20.621 49.6634V47.0477L20.356 46.8391L17.9055 46.7C16.5588 46.6768 15.8854 46.5609 15.8854 45.6568C15.8854 45.4481 15.9406 45.1699 16.051 44.8222C16.1614 44.4513 17.3756 42.3649 19.6937 38.5631L28.7674 23.7151L40.5235 4.48571H41.4176V49.8504H47.5507V0.139092C47.5507 0.139092 34.6841 0.231819 32.5426 0.139092C30.4011 0.0463639 29.1317 0 28.7343 0L28.4694 0.24341V1.98206L28.7343 2.22547C32.8407 2.43411 35.3243 2.71229 36.1854 3.06002C37.0684 3.38456 37.51 3.91775 37.51 4.65957C37.51 5.05366 37.3665 5.50571 37.0795 6.01571C36.6379 6.78072 15.0575 39.3049 12.342 43.3618C11.1499 45.1004 10.2337 45.8075 9.59345 46.1784C9.14766 46.4366 6.67772 46.8878 4 47C3 47 0.814744 46.8179 0.264926 46.8391Z" fill="black"/>
<path d="M29.032 18.5491C29.319 18.0391 29.4625 17.0786 29.4625 16.6845C29.4625 15.9427 29.0209 15.4095 28.1378 15.0849C27.2768 14.7372 24.7931 14.459 20.6868 14.2504L20.4219 14.007V12.2683L20.6868 12.0249C21.0842 12.0249 22.3536 12.0713 24.4951 12.164C30.9299 12.3183 32.9722 12.1847 33.1287 12.0402L33.1383 12.0249C33.1374 12.0299 33.1343 12.0349 33.1291 12.0398C32.9474 12.3335 30.1344 16.879 29.032 18.5491Z" fill="black"/>
<path d="M21.7058 29.8289C21.9928 29.3189 22.1363 28.3583 22.1363 27.9642C22.1363 27.2224 21.6947 26.6892 20.8117 26.3647C19.9507 26.017 17.467 25.7388 13.3606 25.5301L13.0957 25.2867V23.5481L13.3606 23.3047C13.758 23.3047 15.0275 23.351 17.1689 23.4438L25.5085 23.5481L23.3583 27.0995C22.7804 28.0927 22.2296 29.0354 21.7058 29.8289Z" fill="black"/>
<path d="M14.6208 40.9703C14.9078 40.4603 15.0513 39.4997 15.0513 39.1056C15.0513 38.3638 14.6098 37.8306 13.7267 37.5061C12.8657 37.1584 10.382 36.8802 6.27567 36.6715L6.01074 36.4281V34.6895L6.27567 34.4461C6.67306 34.4461 8.155 34.5033 9.11948 34.5442C10.9298 34.4747 17.2392 34.6508 17.8794 34.2799C18.5196 33.909 19.2305 33.348 20.4227 31.6094L18.4235 34.6895L16.2733 38.241C15.6954 39.2341 15.1446 40.1768 14.6208 40.9703Z" fill="black"/>
<path fill-rule="evenodd" clip-rule="evenodd" d="M124.153 0H83.4601L82.6123 0.890186V29.3762L83.4601 30.2663H124.153L125 29.3762V0.890186L124.153 0ZM117.839 24.7064V22.3268H108.781L114.181 16.6922C115.308 15.5252 116.073 14.4858 116.477 13.5741C116.88 12.6624 117.082 11.6959 117.082 10.6748C117.082 9.03365 116.536 7.73899 115.442 6.79078C114.349 5.82434 112.877 5.34112 111.027 5.34112C109.647 5.34112 108.394 5.59641 107.267 6.10698C106.157 6.61755 105.257 7.32871 104.567 8.24044L106.283 9.85421C107.343 8.46838 108.848 7.77546 110.799 7.77546C112.011 7.77546 112.936 8.05809 113.575 8.62337C114.231 9.17041 114.559 9.94539 114.559 10.9483C114.559 11.623 114.408 12.2977 114.105 12.9724C113.802 13.6288 113.213 14.4129 112.339 15.3246L105.147 22.8465V24.7064H117.839ZM100.395 14.7502C99.2177 13.7109 97.3673 13.1912 94.8441 13.1912H92.8759L93.3554 7.93957H101.203V5.55994H91.2358L90.3022 15.5708H94.3142C96.2655 15.5708 97.6449 15.8717 98.4523 16.4734C99.2597 17.0569 99.6635 17.9231 99.6635 19.0719C99.6635 20.1295 99.2934 20.9683 98.5532 21.5883C97.8299 22.19 96.8038 22.4909 95.4749 22.4909C94.4319 22.4909 93.4395 22.3085 92.4975 21.9438C91.5554 21.5609 90.7817 21.0595 90.1761 20.4395L89.0154 22.6003C89.7724 23.3297 90.7312 23.9041 91.8919 24.3235C93.0526 24.7246 94.2553 24.9252 95.5001 24.9252C96.9636 24.9252 98.1916 24.6699 99.184 24.1594C100.193 23.6306 100.942 22.9194 101.43 22.0259C101.934 21.1142 102.187 20.093 102.187 18.9625C102.187 17.1755 101.59 15.7714 100.395 14.7502Z" fill="#F98C37"/>
</svg>
